<svg height="512pt" viewBox="0 0 512 512" width="512pt" xmlns="http://www.w3.org/2000/svg"><path d="m512 256c0 141.386719-114.613281 256-256 256s-256-114.613281-256-256 114.613281-256 256-256 256 114.613281 256 256zm0 0" fill="#2864f0"/><path d="m512 256c0-7.144531-.308594-14.214844-.882812-21.210938l-101.117188-101.121093-26.71875 29.464843-62.636719-62.636718h-123.761719l-3.136718 75.328125-133.746094-1.65625 165.027344 165.027343-87.65625 85.691407 84.902344 84.898437c11.039062 1.453125 22.292968 2.214844 33.726562 2.214844 141.386719 0 256-114.613281 256-256zm0 0" fill="#27488f"/><path d="m171.355469 169.074219v103.8125h37.859375v-103.8125c0-7.714844 1.886718-14.988281 5.207031-21.410157h-40.320313c-1.789062 6.84375-2.746093 14.015626-2.746093 21.410157zm0 0" fill="#fff"/><path d="m410 133.671875v81h-279.324219v-81zm0 0" fill="#ffa300"/><path d="m130.675781 173.761719h279.324219v40.90625h-279.324219zm0 0" fill="#fa5d0f"/><path d="m410 157.359375v33.621094h-279.324219v-33.621094zm0 0" fill="#fa5d0f"/><path d="m130.675781 173.761719h279.324219v17.214843h-279.324219zm0 0" fill="#f24500"/><path d="m130.675781 133.667969-70.675781 40.5 70.675781 40.5zm0 0" fill="#fff"/><path d="m60.710938 173.761719-.710938.40625 70.675781 40.5v-40.90625zm0 0" fill="#e9edf5"/><path d="m89.332031 190.976562v-33.617187l-29.332031 16.808594zm0 0" fill="#27488f"/><path d="m60 174.167969 29.332031 16.808593v-17.214843zm0 0" fill="#1b3b6b"/><path d="m256 70.429688c-39.28125 0-72.390625 26.894531-81.898438 63.238281h40.320313c7.78125-15.058594 23.492187-25.378907 41.578125-25.378907 25.796875 0 46.785156 20.988282 46.785156 46.785157v103.816406h37.859375v-103.816406c0-46.675781-37.96875-84.644531-84.644531-84.644531zm0 0" fill="#fff"/><path d="m256 70.429688c-.0625 0-.128906.003906-.191406.003906v37.855468h.191406c25.796875 0 46.785156 20.988282 46.785156 46.785157v103.816406h37.859375v-103.816406c0-46.675781-37.96875-84.644531-84.644531-84.644531zm0 0" fill="#e9edf5"/><path d="m137.371094 229.222656h237.253906v195.664063h-237.253906zm0 0" fill="#53edf5"/><path d="m255.808594 229.222656h118.820312v195.664063h-118.820312zm0 0" fill="#05d3d3"/></svg>